# xmcd
#
# Track frame offsets: 
#        150
#        16713
#        33132
#        51001
#        61514
#        82115
#        104273
#        128560
#        140977
#        156729
#        176851
#        192404
#        209261
#        222450
#        239819
#        256553
#        273928
#        292997
#        319693
#        339212
#
# Disc length: 4739 seconds
#
# Revision: 0
# Processed by: cddbd v1.5.2PL0 Copyright (c) Steve Scherf et al.
# Submitted via: ExactAudioCopy v1.0b3
#
DISCID=25128114
DTITLE=Różni wykonawcy - Las Woda and Blues 2018
DYEAR=2019
DGENRE=Blues
TTITLE0=J.J.Band - Hymn Las Woda and Blues
TTITLE1=Bluesferajna - Stacyjka Pana Józka
TTITLE2=Blues Overdues - Baby Please Don`t Go
TTITLE3=Guitar Mark - Boogie Chillun
TTITLE4=Hard Times - Podziemia miasta
TTITLE5=Sinful Betty`s Band - I`m Waiting For You
TTITLE6=George Dyer Band - Shoot You Down
TTITLE7=Ścigani - Ełyła
TTITLE8=Maciej Lipina - Wysyłam dobro
TTITLE9=Marco Bartoccioni The Jam Band - Together
TTITLE10=Yellow Snow - Seven Floor
TTITLE11=Niewierny Tomasz - Żyj jak
TTITLE12=Blues Junkers - Mama Don`t Like
TTITLE13=J.J.Band - It Take Two
TTITLE14=The Firebones - I`m Losing You
TTITLE15=Paranoja Hotel - Jeden dzień
TTITLE16=Blues Drawers - Skazany na inspekcje
TTITLE17=ZBB - Rozstanie
TTITLE18=Jurajski Oddział Bluesowy - Something About
TTITLE19=Salto - Rzeka
EXTD=
EXTT0=
EXTT1=
EXTT2=
EXTT3=
EXTT4=
EXTT5=
EXTT6=
EXTT7=
EXTT8=
EXTT9=
EXTT10=
EXTT11=
EXTT12=
EXTT13=
EXTT14=
EXTT15=
EXTT16=
EXTT17=
EXTT18=
EXTT19=
PLAYORDER=
